# xmcd CD database file
#
# Track frame offsets:
#	150
#	14020
#	28505
#	46980
#	65045
#	85807
#	111582
#	129357
#	145580
#	171365
#	186710
#	207037
#	226752
#	246297
#
# Disc length: 3610 seconds
#
# Revision: 1
# Processed by: cddbd v1.5.2PL0 Copyright (c) Steve Scherf et al.
# Submitted via: CDex 1.70beta2
#
DISCID=c80e180e
DTITLE=Pete Allen - Riverboat Shuffle
DYEAR=1900
DGENRE=Jazz
TTITLE0=Everybody Loves My Baby
TTITLE1=Rondo A La Turka (Turkey Trot)
TTITLE2=Original Dixieland One Step
TTITLE3=Do You Know What It Means To Miss New Orleans
TTITLE4=Panama Rag
TTITLE5=Royal Garden Blues
TTITLE6=Black And Tan Fanstasy
TTITLE7=Down In Honky Tonk Town
TTITLE8=I'm Gonna Sit Right Down And Write Myself A Letter
TTITLE9=Cornet Chop Sue
TTITLE10=Rent Party Blues
TTITLE11=Ole Miss Rag
TTITLE12=Black Lion Rag
TTITLE13=Riverboat Shuffle
EXTD=
EXTT0=
EXTT1=
EXTT2=
EXTT3=
EXTT4=
EXTT5=
EXTT6=
EXTT7=
EXTT8=
EXTT9=
EXTT10=
EXTT11=
EXTT12=
EXTT13=
PLAYORDER=
